# xmcd CD database file
#
# Track frame offsets:
#	150
#	8725
#	22909
#	33387
#	45728
#	56981
#	70602
#	81865
#	94460
#	106497
#	118240
#	129652
#	141099
#	152778
#	168144
#	182396
#	197691
#	208341
#	219773
#	230747
#	244496
#	254250
#	267016
#	283683
#
# Disc length: 3927 seconds
#
# Revision: 0
# Processed by: cddbd v1.5.2PL0 Copyright (c) Steve Scherf et al.
# Submitted via: CDex 1.51
#
DISCID=5c0f5518
DTITLE=Susan McCann - The Nashville Years [CD2]
DYEAR=2009
DGENRE=Country
TTITLE0=Dirty Cheezy Jeans
TTITLE1=When The Rain Disappears
TTITLE2=I Feel Sorry For Anyone Who Isn't Me Tonight
TTITLE3=Blue Ribbon Beer Drinking Song
TTITLE4=Nothing Like A Rainy Night
TTITLE5=The Hard Loved Lady and The Guitar Player
TTITLE6=Down To My Last Broken Heart
TTITLE7=Marty Gray
TTITLE8=Chuck The Chuck Wagon
TTITLE9=They Won't Let You Rock 'N' Roll No More At The Palomino
TTITLE10=Rainy Days and Stormy Nights
TTITLE11=Wishful Drinking
TTITLE12=When The New Wears Off Our Love
TTITLE13=Thank God I'm A Country Girl
TTITLE14=No One Will Ever Know
TTITLE15=Radio Heart
TTITLE16=Close All The Honky Tonks
TTITLE17=Funny Face
TTITLE18=I Couldn't Care Less
TTITLE19=Out Of Reach Of My Two Open Arms
TTITLE20=Iney-Iney-It-Zi-Iney
TTITLE21=It Only Hurts For A Little While
TTITLE22=Sunday Morning Christian
TTITLE23=There's A Built-In Trouble Maker In Every Man
EXTD=YEAR: 2009
EXTT0=
EXTT1=
EXTT2=
EXTT3=
EXTT4=
EXTT5=
EXTT6=
EXTT7=
EXTT8=
EXTT9=
EXTT10=
EXTT11=
EXTT12=
EXTT13=
EXTT14=
EXTT15=
EXTT16=
EXTT17=
EXTT18=
EXTT19=
EXTT20=
EXTT21=
EXTT22=
EXTT23=
PLAYORDER=
